<svg width="25" height="24" viewBox="0 0 25 24" fill="none" xmlns="http://www.w3.org/2000/svg">
<path d="M12.5 13.525C13.3422 13.525 14.025 12.8422 14.025 12C14.025 11.1578 13.3422 10.475 12.5 10.475C11.6578 10.475 10.975 11.1578 10.975 12C10.975 12.8422 11.6578 13.525 12.5 13.525Z" fill="#6B7280" stroke="#6B7280" stroke-width="0.8"/>
<path d="M19.5 13.525C20.3422 13.525 21.025 12.8422 21.025 12C21.025 11.1578 20.3422 10.475 19.5 10.475C18.6578 10.475 17.975 11.1578 17.975 12C17.975 12.8422 18.6578 13.525 19.5 13.525Z" fill="#6B7280" stroke="#6B7280" stroke-width="0.8"/>
<path d="M5.5 13.525C6.34223 13.525 7.025 12.8422 7.025 12C7.025 11.1578 6.34223 10.475 5.5 10.475C4.65777 10.475 3.975 11.1578 3.975 12C3.975 12.8422 4.65777 13.525 5.5 13.525Z" fill="#6B7280" stroke="#6B7280" stroke-width="0.8"/>
</svg>
